<?xml version="1.0" encoding="UTF-8" standalone="no"?>
<svg
   aria-hidden="true"
   role="img"
   class="iconify iconify--logos"
   width="31.88"
   height="32"
   preserveAspectRatio="xMidYMid meet"
   viewBox="0 0 256 257"
   version="1.1"
   id="svg20"
   sodipodi:docname="vite.svg"
   inkscape:version="1.2.2 (b0a8486541, 2022-12-01)"
   xmlns:inkscape="http://www.inkscape.org/namespaces/inkscape"
   xmlns:sodipodi="http://sodipodi.sourceforge.net/DTD/sodipodi-0.dtd"
   xmlns="http://www.w3.org/2000/svg"
   xmlns:svg="http://www.w3.org/2000/svg">
  <sodipodi:namedview
     id="namedview22"
     pagecolor="#ffffff"
     bordercolor="#000000"
     borderopacity="0.25"
     inkscape:showpageshadow="2"
     inkscape:pageopacity="0.0"
     inkscape:pagecheckerboard="0"
     inkscape:deskcolor="#d1d1d1"
     showgrid="false"
     inkscape:zoom="11.226119"
     inkscape:cx="19.81985"
     inkscape:cy="15.232334"
     inkscape:window-width="1366"
     inkscape:window-height="709"
     inkscape:window-x="0"
     inkscape:window-y="27"
     inkscape:window-maximized="1"
     inkscape:current-layer="svg20" />
  <defs
     id="defs14">
    <linearGradient
       id="IconifyId1813088fe1fbc01fb466"
       x1="-.828%"
       x2="57.636%"
       y1="7.652%"
       y2="78.411%">
      <stop
         offset="0%"
         stop-color="#41D1FF"
         id="stop2" />
      <stop
         offset="100%"
         stop-color="#BD34FE"
         id="stop4" />
    </linearGradient>
    <linearGradient
       id="IconifyId1813088fe1fbc01fb467"
       x1="43.376%"
       x2="50.316%"
       y1="2.242%"
       y2="89.03%">
      <stop
         offset="0%"
         stop-color="#FFEA83"
         id="stop7" />
      <stop
         offset="8.333%"
         stop-color="#FFDD35"
         id="stop9" />
      <stop
         offset="100%"
         stop-color="#FFA800"
         id="stop11" />
    </linearGradient>
    <clipPath
       clipPathUnits="userSpaceOnUse"
       id="clipPath3052">
      <path
         style="fill:#f2913f;fill-opacity:1;stroke:none;stroke-width:30.3544;paint-order:stroke fill markers;stop-color:#000000"
         d="m 304.36661,125.31398 46.89671,15.6885 36.70286,8.28262 41.27165,-3.63745 18.77153,-14.53908 L 485.12721,83.400588 483.62387,9.1804632 399.4407,-6.5024253 264.96633,-2.9915895 264.93099,105.35321 Z"
         id="path3054" />
    </clipPath>
    <clipPath
       clipPathUnits="userSpaceOnUse"
       id="clipPath4062">
      <rect
         style="fill:#666666;fill-opacity:1;stroke:none;stroke-width:30.3544;paint-order:stroke fill markers;stop-color:#000000"
         id="rect4064"
         width="50.683594"
         height="49.948826"
         x="100.74043"
         y="30.137821"
         rx="22.986341"
         ry="9.2263117" />
    </clipPath>
  </defs>
  <path
     style="fill:#cccccc;fill-opacity:1;stroke:none;stroke-width:30.3544;paint-order:stroke fill markers;stop-color:#000000"
     d="m 67.213618,245.12774 51.060552,5.73505 74.09793,-9.66313 51.3917,-36.04719 -16.44322,-61.43823 -29.28158,39.44837 -43.31234,25.56554 -62.157247,12.03983 -37.173478,0.43369 z"
     id="path4066" />
  <path
     style="fill:#cccccc;fill-opacity:1;stroke:none;stroke-width:30.3544;paint-order:stroke fill markers;stop-color:#000000"
     d="m 60.772325,131.33131 38.400438,11.83329 29.943297,6.01716 25.4222,-2.07469 16.55248,-3.66132 13.89751,-10.40063 14.3845,-19.18931 1.40472,-34.313786 L 206.1899,58.550759 205.70206,40.891855 199.50972,30.069733 191.3007,48.789261 187.39059,23.239729 174.16201,9.6821642 172.97239,39.260126 159.8365,15.875899 142.43512,6.7294273 147.70133,25.547578 124.64445,8.4217631 109.64668,5.0523526 119.21768,27.582542 93.647416,10.87476 72.588895,5.6987148 70.733941,8.2820186 80.926606,21.80041 87.965122,30.970248 87.545063,37.784599 63.57098,27.279605 41.559241,24.535794 29.389394,26.532442 48.678744,38.973487 58.79906,49.63586 62.712045,61.477232 36.989829,64.021908 27.982464,67.61007 52.312415,86.887933 65.605092,107.02773 76.053048,78.142244 105.88294,60.662519 l 21.38013,12.098592 24.38166,18.427573 8.15244,3.170296 21.42417,-11.829494 8.61137,11.239036 0.7706,8.884008 -2.31318,8.39943 -8.27158,7.14276 -9.82877,1.29626 -8.4139,-2.89962 -6.72166,-6.8165 -2.08419,-13.824432 -4.48027,1.218437 -2.18605,12.717555 -7.55837,9.85506 -8.3049,6.25408 -14.24059,3.62062 -15.77406,0.66619 -19.452578,-8.96849 -10.316746,-12.83904 -11.540542,15.12632 z"
     id="path3112" />
  <path
     style="fill:#f2913f;fill-opacity:1;stroke:none;stroke-width:30.3544;paint-order:stroke fill markers;stop-color:#000000"
     d="m 59.166629,131.96563 -7.188174,39.73668 6.344536,48.76682 43.673269,-1.53114 51.75635,-8.68333 43.43687,-26.82985 19.34207,-23.86136 -18.02262,-51.09817 -6.80618,18.07816 -12.62037,11.90121 -20.22537,9.22712 -34.25411,1.09084 -39.556463,-8.21161 z"
     id="path683"
     sodipodi:nodetypes="cccccccccccccc" />
  <path
     fill="url(#IconifyId1813088fe1fbc01fb466)"
     d="M 155.18745,21.957382 143.8513,72.975311 c -0.23406,1.053386 -1.5286,1.44723 -2.30974,0.703067 L 103.52267,37.449933 c -0.85117,-0.810871 -0.36989,-2.246632 0.79815,-2.380655 l 33.25572,15.400491 c 0,0 -0.0342,-5.839115 15.62766,-30.048023 1.04457,-0.532594 2.23744,0.391317 1.98329,1.53577 z"
     id="path328"
     style="fill:#ffcc00;stroke-width:0.999999"
     sodipodi:nodetypes="ccccccccc" />
  <path
     style="fill:#000000;stroke-width:30.3543"
     d="m 97.62638,253.65633 c -6.358951,-1.29123 -15.636086,-3.54942 -20.615889,-5.01821 -10.884011,-3.21019 -10.031061,-3.18059 -13.263462,-0.46068 -2.626208,2.2098 -2.626208,2.2098 -4.657728,-2.38384 -1.660637,-3.75497 -2.669598,-4.88139 -5.526555,-6.16971 -3.85992,-1.74057 -4.238908,-2.73094 -0.501227,-1.30988 3.311264,1.25894 3.355714,0.96945 1.00087,-6.51103 -10.566496,-33.56541 -9.461792,-77.20143 2.907552,-114.8497 4.621108,-14.06496 -7.887485,-32.550911 -29.267105,-43.252835 -5.229304,-2.617638 -9.618065,-4.869317 -9.752796,-5.003742 -0.723565,-0.722055 8.818514,-5.763812 14.701804,-7.767979 5.645321,-1.923111 8.35905,-2.330948 15.944376,-2.396229 10.225523,-0.08803 10.36098,-0.193489 7.878944,-6.133794 C 52.150261,42.047773 36.446845,32.119602 16.115583,26.882114 11.111304,25.593 8.2591549,24.058146 10.753959,23.996874 c 0.350793,-0.01017 3.890584,-0.599627 7.866219,-1.313257 20.618344,-3.70138 48.480227,0.360134 62.761961,9.149019 3.815775,2.348206 4.116917,1.607442 1.59017,-3.911651 C 79.060284,19.375956 70.342117,11.64637 57.10091,4.983181 48.999555,0.90647248 49.196661,0.71632438 60.927695,1.2903276 c 15.665298,0.7664465 36.13745,7.344583 47.058025,15.1207704 3.00297,2.138273 3.88944,1.758717 2.43441,-1.042343 -2.0918,-4.027059 -6.76129,-9.0083875 -11.488701,-12.255969 -4.857187,-3.33674326 -4.857187,-3.33674326 -0.851439,-3.59849105 9.69033,-0.63319755 25.34369,4.62940175 37.17273,12.49733705 4.04571,2.690907 7.14286,4.29158 6.88263,3.556946 -0.5465,-1.542626 -4.49912,-7.6154987 -7.61885,-11.7056003 -2.6904,-3.52734173 -1.58171,-3.68740605 7.10991,-1.0265964 13.0252,3.9874594 22.25104,10.8121077 27.41948,20.2829357 4.3072,7.892675 4.07815,-5.322549 -0.30759,-17.7533558 -1.40977,-3.9956959 -1.41514,-3.9922822 2.8201,-1.8315664 11.13703,5.6816805 19.3756,18.0595682 21.27123,31.9585702 0.90132,6.609194 2.41664,3.730724 3.2546,-6.182519 0.54031,-6.391969 0.54031,-6.391969 2.96706,-3.506293 10.61165,12.618197 13.58395,31.44405 7.17492,45.443309 -7.97248,17.414196 -4.18477,50.323518 8.01534,69.641078 4.46253,7.06586 4.31302,7.11182 8.11559,-2.49554 3.19699,-8.07754 3.19699,-8.07754 5.81777,-6.0573 2.13195,1.64341 2.73656,2.8725 3.24139,6.5893 2.88617,21.24973 9.50207,50.54873 12.61995,55.88886 0.73609,1.2608 4.53157,11.19985 5.60789,14.68524 0.55352,1.79229 -3.95238,5.3935 -17.99804,14.38422 -42.07791,26.93449 -92.65994,38.17147 -134.019646,29.77301 z m 41.75097,-8.1439 c 35.39373,-5.15749 72.94563,-22.10791 95.8981,-43.2872 0.86377,-0.79701 0.33782,-3.60826 -2.64366,-14.13059 -3.43293,-12.11592 -5.46452,-21.15093 -7.14076,-31.7565 -0.65813,-4.16403 -0.65813,-4.16403 -5.03078,2.97641 -24.1729,39.47341 -72.57417,62.01734 -136.230131,63.45216 -20.705879,0.46671 -20.705879,0.46671 -20.178534,3.11718 0.926627,4.65733 3.94712,15.39534 4.650828,16.53411 2.710068,4.38486 48.162037,6.37491 70.674937,3.09443 z m -47.283902,-29.012 c 4.272986,-0.36121 6.404737,-0.8783 6.135537,-1.48821 -3.02013,-6.84193 -6.861383,-16.88788 -8.770287,-22.9367 -2.381093,-7.54514 -2.381093,-7.54514 -9.386155,-9.55769 -3.852772,-1.10688 -9.784376,-3.01537 -13.181258,-4.2411 -10.204518,-3.68214 -10.002981,-3.69518 -10.002981,0.64792 0,6.19552 2.641635,26.43499 4.726843,36.21588 0.445258,2.08828 14.462717,2.71372 30.478301,1.3599 z m 29.425432,-4.27365 c 13.09944,-2.60252 12.23515,-1.40474 9.40273,-13.03131 -2.38248,-9.77964 -2.38248,-9.77964 -13.33365,-10.30652 -6.02309,-0.28991 -13.90761,-1.03258 -17.52109,-1.65058 -3.613482,-0.618 -6.773862,-0.91982 -7.022958,-0.67069 -0.726412,0.72638 6.746728,25.11355 8.628948,28.15907 0.57787,0.93495 5.98522,0.25391 19.84602,-2.49997 z m 23.01394,-6.12398 c 19.2243,-6.55629 18.65585,-6.07429 18.65585,-15.81853 0,-8.7304 0,-8.7304 -7.29857,-6.27779 -4.0142,1.3489 -10.99073,3.04672 -15.50347,3.77289 -4.51273,0.72616 -8.32932,1.44464 -8.48129,1.59662 -0.23759,0.23752 2.55458,13.3393 3.7691,17.68572 0.53361,1.90929 0.40866,1.92282 8.85838,-0.95891 z m 36.30164,-17.37359 c 7.86624,-5.16946 7.86624,-5.16946 7.86624,-14.78487 0,-10.6591 -0.14149,-10.88011 -4.24858,-6.64246 -3.00419,3.09948 -12.46162,9.75937 -16.42038,11.5631 -2.27422,1.0362 -2.29187,1.11211 -2.29187,9.85426 0,10.13204 -0.30759,10.13185 15.0946,0.0102 z m -53.69701,-8.03 c -0.45961,-2.28955 -2.3928,-15.87248 -3.50003,-24.59153 -0.55801,-4.39444 -0.55801,-4.39444 -4.95247,-4.96748 -7.57262,-0.98741 -21.620052,-4.34128 -32.054955,-7.65321 -2.336832,-0.74165 -2.059599,3.13053 1.58279,22.10705 2.580291,13.44344 2.554565,13.42447 21.825695,16.0918 14.54354,2.01298 17.6649,1.83289 17.09897,-0.98663 z m 19.46832,0.0938 c 16.98989,-3.21774 16.76653,-2.89366 14.73728,-21.38235 -1.13171,-10.31124 -0.4937,-9.65133 -7.93408,-8.20619 -3.27402,0.63592 -10.44931,1.17029 -15.94501,1.18745 -9.99223,0.0321 -9.99223,0.0321 -9.99223,3.68081 0,3.84766 2.30079,22.92328 3.07539,25.49755 0.51558,1.71362 3.72775,1.55814 16.05865,-0.77727 z m 52.39589,-6.89714 c 9.78607,-10.16662 12.233,-13.6054 11.30739,-15.8908 -0.4254,-1.05032 -1.92156,-5.03097 -3.32468,-8.84597 -2.96807,-8.06962 -2.9462,-8.0558 -5.25002,-3.31372 -0.96918,1.99484 -3.91556,6.48949 -6.54752,9.98806 -4.78536,6.36107 -4.78536,6.36107 -4.78536,15.50708 0,11.25247 0.17778,11.30528 8.60019,2.55535 z m -115.687476,-9.3783 c -0.987332,-5.48257 -2.266511,-12.95659 -2.842678,-16.60893 -1.047529,-6.64056 -1.047529,-6.64056 -9.551521,-9.98886 -4.677266,-1.84161 -8.940709,-3.34984 -9.474446,-3.35167 -1.252173,-0.003 -3.657104,12.63638 -4.293279,22.56634 -0.549992,8.58495 0.200839,9.2035 19.611227,16.15684 9.174247,3.28644 8.810249,3.77392 6.550697,-8.77372 z m 90.160006,5.6466 c 13.35308,-8.62717 14.66343,-10.42129 14.04439,-19.22856 -1.07175,-15.24689 -1.26375,-15.92687 -3.82912,-13.56237 -3.65312,3.36712 -10.06091,7.39666 -14.78364,9.29675 -6.1521,2.47519 -6.04257,2.26296 -5.02041,9.72962 0.50092,3.65951 1.16067,9.0454 1.46612,11.96867 0.66546,6.36911 0.94769,6.43153 8.12266,1.79589 z m 24.99841,-24.91211 c 4.61733,-6.86046 4.61733,-6.86046 2.58903,-14.93931 -1.11558,-4.44332 -2.27612,-9.21228 -2.57885,-10.59766 -0.54535,-2.49541 -0.57571,-2.47169 -3.25964,2.55121 -1.4901,2.78854 -3.71842,6.40943 -4.95187,8.04645 -2.24261,2.97643 -2.24261,2.97643 -0.90967,13.81827 1.55956,12.68518 1.34557,12.65886 9.111,1.12104 z m -37.98092,-1.25012 c 24.85386,-7.28418 35.95724,-21.84691 36.31162,-47.624627 0.21438,-15.588019 0.96261,-20.333238 4.77365,-30.269951 2.86747,-7.476554 2.85254,-20.342477 -0.0323,-26.362473 -2.03632,-4.251996 -2.03632,-4.251996 -2.73441,-0.549977 -0.99113,5.25615 -4.41981,10.652376 -8.98142,14.135456 -5.03279,3.842808 -5.47179,3.772196 -3.83514,-0.616855 3.41378,-9.154869 1.3614,-22.237218 -5.04316,-32.146366 -3.87503,-5.995461 -4.65905,-6.104611 -3.23538,-0.450501 2.23724,8.884871 -0.46214,20.879778 -6.28401,27.923421 -1.9361,2.342439 -1.9361,2.342439 -1.90113,-3.826785 0.0607,-10.671274 -6.3188,-20.928105 -18.9757,-30.509668 -6.64567,-5.0308916 -7.12338,-4.8486458 -3.11503,1.188375 4.21771,6.35237 7.30872,15.66436 7.79971,23.497648 0.40483,6.457671 0.40483,6.457671 -2.22688,1.780463 -8.27062,-14.698917 -26.25165,-29.628319 -39.54598,-32.8343556 -2.52345,-0.6085465 -2.52345,-0.6085465 0.68904,3.1442566 5.93956,6.938532 10.76373,19.44713 10.76373,27.909258 0,3.814642 0,3.814642 -2.5648,-0.229499 C 113.59821,24.353086 87.17403,7.8549257 73.816598,7.8549257 c -0.405993,0 2.073951,2.7744333 5.511128,6.1654473 8.498168,8.383905 13.989119,20.461089 13.108599,28.831963 C 92.178557,45.30407 92.178557,45.30407 87.559469,42.185438 73.91619,32.973627 55.105996,26.563685 41.71726,26.563815 c -4.815003,5.8e-5 -4.815003,5.8e-5 2.352128,4.039453 8.277543,4.665137 16.485012,12.355502 19.747396,18.502994 4.161614,7.842208 5.279856,19.248319 1.750989,17.860035 -5.78425,-2.275517 -14.97311,-2.383781 -25.689096,-0.30277 -6.617923,1.285235 -6.694738,1.528549 -1.189188,3.766182 10.187886,4.140652 19.603194,12.522828 24.667366,21.96058 2.64284,4.925243 2.64284,4.925243 3.204133,0.69415 1.379729,-10.401174 10.256943,-21.242449 22.014458,-26.885286 6.154204,-2.953571 6.154204,-2.953571 3.390389,-3.944462 -3.4213,-1.226637 -3.420865,-1.531585 0.0058,-6.026983 5.021217,-6.583293 10.005265,-8.31412 15.786535,-5.482192 11.89323,5.825781 27.20997,18.743097 36.68813,30.940786 2.55602,3.28946 4.99682,5.764872 5.42386,5.500931 2.28725,-1.41356 -1.69907,-16.800391 -6.28218,-24.248895 -3.39696,-5.520861 -2.79487,-5.902668 1.66992,-1.058917 4.59297,4.982781 8.1828,12.607153 9.43699,20.043237 1.12216,6.652627 1.60391,6.98028 4.56168,3.102435 2.47449,-3.244269 3.49277,-5.607379 6.1363,-14.24048 1.83832,-6.003523 1.9557,-6.173814 1.99858,-2.899839 0.0644,4.898413 -2.95468,16.097178 -5.51873,20.4724 -2.53072,4.318294 -2.42233,4.36745 3.31475,1.502533 10.01766,-5.00242 14.97658,-13.623756 11.53505,-20.054248 -1.28448,-2.400035 -0.77846,-2.586232 4.15378,-1.528462 7.53462,1.615895 13.31806,6.833986 9.30895,8.399098 -5.71416,2.230733 -7.61948,6.360999 -4.3634,9.458961 7.85283,7.471484 8.56001,19.615844 1.62146,27.844754 -11.02135,13.07116 -33.92912,5.98316 -35.1486,-10.87551 -0.44835,-6.198625 -1.44979,-6.618491 -2.12802,-0.89212 -3.75709,31.72269 -59.35952,41.82364 -77.34769,14.05127 -1.046454,-1.61571 -2.171146,-2.9424 -2.499293,-2.94819 -0.72496,-0.0131 -7.907706,14.31396 -7.40953,14.77907 4.159741,3.88391 45.254363,16.04171 60.305893,17.84146 8.61116,1.0296 31.15076,-0.13974 37.27194,-1.93382 z m -39.42773,-16.69359 c 14.99354,-3.90531 24.90153,-14.75209 25.78522,-28.228392 0.48997,-7.473242 -0.27326,-8.897421 -7.69934,-14.364128 C 112.90975,65.399006 96.474248,63.469184 81.944507,77.998896 58.732697,101.21069 86.565934,136.29397 121.06395,127.30835 Z M 109.6268,109.01124 c -10.319491,-2.35293 -11.621431,-17.176361 -1.89385,-21.562855 6.02821,-2.718348 16.33152,1.321769 12.68091,4.972395 -2.2954,2.295373 0.23139,5.892223 2.95613,4.208185 0.68688,-0.424514 0.81576,0.326462 0.44652,2.601833 -1.20671,7.436152 -6.98968,11.422122 -14.18971,9.780442 z m 71.75834,5.38897 c 9.87088,-6.93751 10.20192,-19.619647 0.72502,-27.773268 -1.82132,-1.566971 -1.89107,-1.555437 -4.64508,0.767275 -3.67881,3.102697 -15.1268,8.609249 -19.39896,9.331057 -3.38151,0.571301 -3.38151,0.571301 -3.38151,4.582076 0,12.64428 16.10342,20.54079 26.70053,13.09286 z m -13.38749,-8.60348 c -2.93241,-3.24025 -0.60904,-7.799251 3.97458,-7.799251 1.7164,0 2.27163,0.422234 2.27163,1.727501 0,0.95011 0.57401,1.94774 1.27564,2.21696 1.72121,0.66051 1.60706,2.29517 -0.27965,4.00254 -2.0539,1.85873 -5.48987,1.78862 -7.24226,-0.14785 z"
     id="path636" />
  <path
     fill="url(#IconifyId1813088fe1fbc01fb466)"
     d="M 155.18745,21.957382 143.8513,72.975311 c -0.23406,1.053386 -1.5286,1.44723 -2.30974,0.703067 L 103.52267,37.449933 c -0.85117,-0.810871 -0.36989,-2.246632 0.79815,-2.380655 l 33.25572,15.400491 c 0,0 -0.0342,-5.839115 15.62766,-30.048023 1.04457,-0.532594 2.23744,0.391317 1.98329,1.53577 z"
     id="path3948"
     style="fill:#ffcc00;stroke-width:0.999999"
     sodipodi:nodetypes="ccccccccc"
     clip-path="url(#clipPath4062)" />
</svg>
